<svg xmlns="http://www.w3.org/2000/svg" width="256" height="256" viewBox="0 0 256 256"><g fill="#ffffff" stroke="#ffffff" stroke-width="14"><rect x="70" y="70" width="28" height="28"/><rect x="114" y="70" width="28" height="28"/><rect x="158" y="70" width="28" height="28"/><rect x="70" y="114" width="28" height="28"/><rect x="114" y="114" width="28" height="28"/><rect x="158" y="114" width="28" height="28"/><rect x="70" y="158" width="28" height="28"/><rect x="114" y="158" width="28" height="28"/><rect x="158" y="158" width="28" height="28"/></g><g fill="#111111"><rect x="70" y="70" width="28" height="28"/><rect x="114" y="70" width="28" height="28"/><rect x="158" y="70" width="28" height="28"/><rect x="70" y="114" width="28" height="28"/><rect x="114" y="114" width="28" height="28"/><rect x="158" y="114" width="28" height="28"/><rect x="70" y="158" width="28" height="28"/><rect x="114" y="158" width="28" height="28"/><rect x="158" y="158" width="28" height="28"/></g></svg>
